<svg width="28" height="28" viewBox="0 0 28 28" fill="none" xmlns="http://www.w3.org/2000/svg">
<path fill-rule="evenodd" clip-rule="evenodd" d="M17.5 3.50003C16.2113 3.50003 15.1667 4.5442 15.1667 5.83336V10.5C15.1667 11.7892 16.2113 12.8334 17.5 12.8334H22.1667C23.4554 12.8334 24.5 11.7892 24.5 10.5V5.83336C24.5 4.5442 23.4554 3.50003 22.1667 3.50003H17.5ZM5.83333 15.1667C4.54463 15.1667 3.5 16.2109 3.5 17.5V22.1667C3.5 23.4559 4.54463 24.5 5.83333 24.5H10.5C11.7887 24.5 12.8333 23.4559 12.8333 22.1667V17.5C12.8333 16.2109 11.7887 15.1667 10.5 15.1667H5.83333ZM15.1667 17.5C15.1667 16.2109 16.2113 15.1667 17.5 15.1667H22.1667C23.4554 15.1667 24.5 16.2109 24.5 17.5V22.1667C24.5 23.4559 23.4554 24.5 22.1667 24.5H17.5C16.2113 24.5 15.1667 23.4559 15.1667 22.1667V17.5Z" fill="white"/>
<path d="M5.83138 3.50003C4.54268 3.50003 3.49805 4.5442 3.49805 5.83336V10.5C3.49805 11.7892 4.54268 12.8334 5.83138 12.8334H10.498C11.7867 12.8334 12.8314 11.7892 12.8314 10.5V5.83336C12.8314 4.5442 11.7867 3.50003 10.498 3.50003H5.83138Z" fill="white"/>
</svg>
