<svg width="24" height="18" viewBox="0 0 24 18" fill="none" xmlns="http://www.w3.org/2000/svg">
<path d="M17.2499 9.00004C18.8599 9.00004 20.1549 7.69337 20.1549 6.08337C20.1549 4.47337 18.8599 3.16671 17.2499 3.16671C15.6399 3.16671 14.3333 4.47337 14.3333 6.08337C14.3333 7.69337 15.6399 9.00004 17.2499 9.00004ZM8.49992 7.83337C10.4366 7.83337 11.9883 6.27004 11.9883 4.33337C11.9883 2.39671 10.4366 0.833374 8.49992 0.833374C6.56325 0.833374 4.99992 2.39671 4.99992 4.33337C4.99992 6.27004 6.56325 7.83337 8.49992 7.83337ZM17.2499 11.3334C15.1149 11.3334 10.8333 12.4067 10.8333 14.5417V16C10.8333 16.6417 11.3583 17.1667 11.9999 17.1667H22.4999C23.1416 17.1667 23.6666 16.6417 23.6666 16V14.5417C23.6666 12.4067 19.3849 11.3334 17.2499 11.3334ZM8.49992 10.1667C5.78159 10.1667 0.333252 11.5317 0.333252 14.25V16C0.333252 16.6417 0.858252 17.1667 1.49992 17.1667H8.49992V14.5417C8.49992 13.55 8.88492 11.8117 11.2649 10.4934C10.2499 10.2834 9.26992 10.1667 8.49992 10.1667Z" fill="#EADC8A"/>
</svg>
