<svg width="22" height="22" viewBox="0 0 22 22" fill="none" xmlns="http://www.w3.org/2000/svg">
<path d="M6.21207 3.77759H3.77686V6.21129H6.21207V3.77759Z" fill="white"/>
<path d="M14.1984 16.5165H11.7646V18.9517H14.1984V16.5165Z" fill="white"/>
<path d="M21.5001 14.0824H19.0664V16.5161H21.5001V14.0824Z" fill="white"/>
<path d="M16.6305 14.0824H14.1984V11.6499H11.7646V14.0836H14.1984V16.5161H16.6321V14.0836H19.065V11.6499H16.6305V14.0824Z" fill="white"/>
<path d="M19.0651 18.9498H16.6306V21.3842H19.0651V18.9498Z" fill="white"/>
<path d="M1.20295 9.4896H8.7862C9.17424 9.4896 9.48879 9.17505 9.48916 8.78701V1.20298C9.48916 0.814574 9.17461 0.500031 8.7862 0.500031H1.20295C0.814543 0.500031 0.5 0.814574 0.5 1.20298V8.78701C0.5 9.17505 0.814543 9.4896 1.20295 9.4896ZM1.90554 1.90557H8.08325V8.08406H1.90554V1.90557Z" fill="white"/>
<path d="M17.3817 3.77759H14.948V6.21129H17.3817V3.77759Z" fill="white"/>
<path d="M12.3726 9.4896H19.9574C20.3455 9.4896 20.66 9.17505 20.6604 8.78701V1.20298C20.6604 0.814574 20.3458 0.500031 19.9574 0.500031H12.3726C11.9842 0.500031 11.6697 0.814574 11.6697 1.20298V8.78664C11.6697 9.17505 11.9842 9.4896 12.3726 9.4896ZM13.0752 1.90557H19.2545V8.08406H13.0752V1.90557Z" fill="white"/>
<path d="M6.22691 14.9309H3.79321V17.3646H6.22691V14.9309Z" fill="white"/>
<path d="M8.80265 11.6526H1.21785C0.829436 11.6526 0.514893 11.9671 0.514893 12.3555V19.9396C0.514893 20.328 0.829436 20.6425 1.21785 20.6425H8.80265C9.19069 20.6425 9.50524 20.3276 9.50561 19.9396V12.3555C9.50561 11.9671 9.19106 11.6526 8.80265 11.6526ZM8.0997 19.2366H1.92043V13.0585H8.0997V19.2366Z" fill="white"/>
</svg>
