<svg width="21" height="17" viewBox="0 0 21 17" fill="none" xmlns="http://www.w3.org/2000/svg">
<path d="M3.95213 0.997803C1.91813 0.997803 0.326144 1.5118 0.0451432 3.46679C-0.044857 4.09279 0.153132 4.70881 0.608132 5.1538C0.834133 5.3748 1.07314 5.6378 1.38914 5.9038C2.18214 6.5728 3.19314 7.3248 4.13914 7.9978C6.74215 9.84779 8.79715 10.9978 10.0142 10.9978C11.2312 10.9978 13.2862 9.84779 15.8892 7.9978C16.8362 7.3248 17.8472 6.5718 18.6392 5.9038C18.9552 5.6378 19.1942 5.3758 19.4202 5.1538C19.8752 4.70881 20.0732 4.09279 19.9832 3.46679C19.7022 1.5118 18.1102 0.997803 16.0762 0.997803H3.95213ZM0.0141373 7.1538V12.9978C0.0141373 15.2068 1.80514 16.9978 4.01414 16.9978H16.0142C18.2232 16.9978 20.0142 15.2068 20.0142 12.9978V7.1538C19.1942 7.9328 18.2782 8.7368 16.9832 9.6538C14.1472 11.6618 11.6002 12.9978 10.0142 12.9978C8.42815 12.9978 5.88115 11.6618 3.04515 9.6538C1.74915 8.7368 0.834139 7.9328 0.0141373 7.1538Z" fill="#626262"/>
</svg>
